<?xml version="1.0" encoding="utf-8"?>
<!-- Generator: Adobe Illustrator 19.2.1, SVG Export Plug-In . SVG Version: 6.00 Build 0)  -->
<svg version="1.1" id="layer" xmlns="http://www.w3.org/2000/svg" xmlns:xlink="http://www.w3.org/1999/xlink" x="0px" y="0px"
	 viewBox="0 0 652 652" style="enable-background:new 0 0 652 652;" xml:space="preserve">
<style type="text/css">
	.st0{fill:#3473A3;}
	.st1{fill:#C0D9EC;}
</style>
<polygon class="st0" points="174.2,270.8 174.2,329.4 164,329.4 164,270.8 155.4,270.8 155.4,260.5 182.9,260.5 182.9,270.8 "/>
<g>
	<path class="st0" d="M190.3,306.8c0.1,2.7,0.2,5,0.4,6.8c0.2,1.8,0.4,3.3,0.8,4.4c0.3,1.1,0.8,1.9,1.3,2.4c0.5,0.5,1.1,0.7,1.8,0.7
		c1,0,1.8-0.5,2.3-1.5c0.5-1,1.1-2.8,1.8-5.5l8.4,3c-0.5,2-1.2,3.8-1.9,5.4c-0.7,1.6-1.5,3-2.5,4.2c-1,1.1-2.1,2.1-3.5,2.7
		c-1.4,0.7-3,1-5,1c-2.4,0-4.4-0.6-6.1-1.9c-1.7-1.3-3.1-3.1-4.1-5.4c-1.1-2.3-1.8-5.1-2.3-8.4c-0.5-3.2-0.7-6.9-0.7-10.9
		c0-8.8,1-15.5,3.1-20.2c2-4.7,5.5-7,10.5-7c4.4,0,7.6,2.3,9.7,6.9c2.1,4.6,3.1,11.3,3.1,20.2v3.1H190.3z M194.2,285.5
		c-1.2,0-2.1,1-2.7,2.9c-0.6,1.9-1,5.3-1.1,10.2h7.6C197.8,289.9,196.5,285.5,194.2,285.5"/>
	<path class="st0" d="M226.5,329.4l-1.2-5.1c-0.2-1-0.5-2-0.7-3.2c-0.2-1.1-0.5-2.3-0.7-3.6c-0.2-1.2-0.5-2.5-0.7-3.6
		c-0.3-1.2-0.5-2.3-0.6-3.3c-0.4,2.1-0.8,4.4-1.3,7c-0.5,2.6-1,4.8-1.5,6.7l-1.2,5.1h-10.2l8.8-26.6l-8-25h10l0.6,2.2
		c0.5,1.9,1,4.1,1.5,6.7c0.5,2.6,1,4.9,1.3,7c0.3-2.1,0.7-4.4,1.3-7c0.5-2.6,1.1-4.8,1.6-6.7l0.6-2.2h10l-8.1,24.7l8.8,26.9H226.5z"
		/>
	<path class="st0" d="M254.4,329.4v-2.5c-1,1.2-2,2.1-3,2.7c-1,0.6-2.2,0.9-3.7,0.9c-6.5,0-9.7-5.7-9.7-17c0-5.7,0.9-10,2.7-12.9
		c1.8-2.9,4.6-4.4,8.3-4.4c1.2,0,2.3,0.1,3.1,0.4s1.6,0.7,2.3,1.1v-6.2c0-1.9-0.3-3.2-0.8-4c-0.5-0.8-1.5-1.1-2.8-1.1
		c-1.2,0-2.4,0.3-3.5,1c-1.1,0.7-2.4,1.6-3.8,3l-4-7.7c1.7-1.7,3.7-3.1,5.9-4.3c2.2-1.1,4.5-1.7,6.8-1.7c4.1,0,7.2,1,9.2,3.1
		c2,2.1,3.1,5.6,3.1,10.7v38.9H254.4z M254.4,305.9c-0.5-0.3-1-0.6-1.5-0.7c-0.5-0.2-1.2-0.2-2-0.2c-1.2,0-2.1,0.6-2.7,1.9
		c-0.5,1.2-0.8,3.4-0.8,6.5c0,2.9,0.3,5,0.8,6.3c0.5,1.3,1.5,2,2.8,2c1.4,0,2.5-0.5,3.3-1.6V305.9z"/>
	<path class="st0" d="M289.6,326.8c-2.4,2.4-5.5,3.6-9.3,3.6c-1.8,0-3.4-0.3-4.8-0.9c-1.3-0.6-2.5-1.5-3.5-2.7
		c-1-1.1-1.8-2.5-2.4-4.1c-0.6-1.6-1.1-3.3-1.6-5.2l8.3-3.3c0.5,2.4,1.1,4.3,1.8,5.5c0.6,1.2,1.5,1.9,2.5,1.9c1,0,1.9-0.4,2.5-1.1
		c0.6-0.7,0.9-1.7,0.9-3c0-1-0.1-2-0.3-2.8c-0.2-0.8-0.5-1.6-0.9-2.4c-0.4-0.8-1-1.5-1.7-2.2c-0.7-0.7-1.6-1.5-2.7-2.5
		c-1.9-1.4-3.5-2.9-4.8-4.2c-1.3-1.4-2.3-2.8-3.1-4.1c-0.8-1.4-1.3-2.8-1.6-4.2c-0.3-1.4-0.5-3-0.5-4.7c0-4.1,1.1-7.4,3.2-9.9
		c2.1-2.5,5.1-3.8,8.9-3.8c3.4,0,6,1,7.8,3.1c1.8,2.1,3.1,4.9,4.1,8.5l-8.2,3.3c-0.5-1.9-1-3.4-1.7-4.5c-0.6-1.1-1.4-1.6-2.3-1.6
		c-0.9,0-1.6,0.3-2.1,1c-0.5,0.7-0.8,1.6-0.8,2.7c0,0.9,0.1,1.7,0.3,2.5c0.2,0.7,0.5,1.4,1,2.1c0.5,0.7,1.1,1.4,1.8,2.1
		c0.8,0.7,1.7,1.5,2.9,2.4c2,1.6,3.6,3.1,4.9,4.5c1.3,1.4,2.2,2.9,3,4.3c0.7,1.4,1.2,2.9,1.5,4.5c0.3,1.5,0.4,3.2,0.4,5
		C293.2,321,292,324.5,289.6,326.8"/>
	<path class="st0" d="M338.5,329.4h-8.6l-2.3-18.2c-0.2-1.8-0.5-3.6-0.7-5.6c-0.2-2-0.4-3.9-0.6-5.9c-0.2-2-0.4-3.9-0.5-5.7
		c-0.2-1.8-0.3-3.5-0.4-4.9c-0.1,1.4-0.3,3.1-0.4,4.9c-0.2,1.8-0.3,3.7-0.5,5.7c-0.2,2-0.4,3.9-0.6,5.9c-0.2,2-0.4,3.8-0.7,5.6
		l-2.4,18.3h-8.6l-7.6-68.8h9.4l2.1,22.5c0.1,1.4,0.2,2.9,0.4,4.6c0.1,1.7,0.2,3.5,0.4,5.3c0.1,1.8,0.2,3.6,0.3,5.4
		c0.1,1.8,0.2,3.5,0.2,5.2c0.1-1.6,0.3-3.4,0.4-5.2c0.1-1.8,0.3-3.6,0.5-5.4c0.2-1.8,0.3-3.6,0.5-5.3c0.2-1.7,0.3-3.2,0.4-4.6
		l2.3-22.5h7.9l2.4,22.5c0.1,1.4,0.3,2.9,0.4,4.6c0.2,1.7,0.3,3.5,0.5,5.3c0.2,1.8,0.3,3.6,0.5,5.4c0.1,1.8,0.3,3.5,0.4,5.2
		c0.1-1.6,0.1-3.4,0.2-5.2c0.1-1.8,0.2-3.6,0.3-5.4c0.1-1.8,0.2-3.6,0.4-5.3c0.1-1.7,0.2-3.2,0.4-4.6l2-22.5h9.5L338.5,329.4z"/>
	<path class="st0" d="M364,329.4v-2.5c-1,1.2-2,2.1-3,2.7c-1,0.6-2.2,0.9-3.7,0.9c-6.5,0-9.7-5.7-9.7-17c0-5.7,0.9-10,2.7-12.9
		c1.8-2.9,4.6-4.4,8.3-4.4c1.2,0,2.3,0.1,3.1,0.4c0.9,0.3,1.6,0.7,2.3,1.1v-6.2c0-1.9-0.3-3.2-0.8-4c-0.5-0.8-1.5-1.1-2.8-1.1
		c-1.2,0-2.4,0.3-3.5,1c-1.1,0.7-2.3,1.6-3.8,3l-4-7.7c1.7-1.7,3.7-3.1,5.9-4.3c2.2-1.1,4.5-1.7,6.8-1.7c4.1,0,7.2,1,9.2,3.1
		c2,2.1,3.1,5.6,3.1,10.7v38.9H364z M364,305.9c-0.5-0.3-1-0.6-1.5-0.7c-0.5-0.2-1.2-0.2-2-0.2c-1.2,0-2.1,0.6-2.7,1.9
		c-0.5,1.2-0.8,3.4-0.8,6.5c0,2.9,0.3,5,0.8,6.3c0.5,1.3,1.5,2,2.8,2c1.4,0,2.5-0.5,3.3-1.6V305.9z"/>
	<path class="st0" d="M397,328.8c-1,0.5-2.1,0.9-3.1,1.2c-1,0.3-2.2,0.4-3.5,0.4c-6,0-9.1-3.9-9.1-11.6v-31.4h-3.6v-9.7h3.6v-15.4
		l9.8-4.6v20.1h6.3v9.7h-6.3v28.9c0,2.8,0.8,4.1,2.5,4.1c0.9,0,1.6-0.1,2.2-0.3c0.6-0.2,1.3-0.6,2.1-1.1L397,328.8z"/>
	<path class="st0" d="M409.1,306.8c0.1,2.7,0.2,5,0.4,6.8c0.2,1.8,0.4,3.3,0.8,4.4c0.3,1.1,0.8,1.9,1.3,2.4c0.5,0.5,1.1,0.7,1.8,0.7
		c1,0,1.8-0.5,2.3-1.5c0.5-1,1.1-2.8,1.8-5.5l8.4,3c-0.5,2-1.2,3.8-1.9,5.4c-0.7,1.6-1.5,3-2.5,4.2c-1,1.1-2.1,2.1-3.5,2.7
		c-1.4,0.7-3,1-5,1c-2.4,0-4.4-0.6-6.1-1.9c-1.7-1.3-3.1-3.1-4.1-5.4c-1.1-2.3-1.8-5.1-2.3-8.4c-0.5-3.2-0.7-6.9-0.7-10.9
		c0-8.8,1-15.5,3.1-20.2c2-4.7,5.5-7,10.5-7c4.4,0,7.6,2.3,9.7,6.9c2.1,4.6,3.1,11.3,3.1,20.2v3.1H409.1z M413,285.5
		c-1.2,0-2.1,1-2.7,2.9c-0.6,1.9-1,5.3-1.1,10.2h7.6C416.6,289.9,415.4,285.5,413,285.5"/>
	<path class="st0" d="M449.7,288.9c-0.7-0.7-1.5-1.1-2.2-1.4c-0.7-0.3-1.6-0.4-2.7-0.4c-1.7,0-3.1,0.7-4.2,2v40.3h-9.8v-51.6h9.8
		v2.6c0.9-1.1,1.8-2,2.8-2.7c1-0.7,2.1-1,3.4-1c1.2,0,2,0.1,2.6,0.2c0.5,0.2,1.1,0.4,1.6,0.7L449.7,288.9z"/>
	<path d="M42.6,383.5c-2.4,3.9-6.3,5.8-11.7,5.8H20.2v-46.8h11.6c2.8,0,5.2,0.5,7,1.6c1.9,1.1,3.3,2.6,4.4,4.5
		c1.1,2,1.8,4.4,2.3,7.3c0.4,2.9,0.7,6.1,0.7,9.7C46.2,373.7,45,379.6,42.6,383.5 M36.3,357.3c-0.2-2.2-0.6-3.8-1-5
		c-0.4-1.2-1-2-1.7-2.5c-0.7-0.4-1.5-0.7-2.5-0.7h-1.6v33.7h1.4c0.9,0,1.8-0.2,2.5-0.7c0.7-0.5,1.3-1.3,1.8-2.6
		c0.5-1.2,0.8-3,1.1-5.2c0.3-2.2,0.4-5.1,0.4-8.7C36.7,362.3,36.5,359.5,36.3,357.3"/>
	<path d="M57.7,374c0.1,1.8,0.2,3.4,0.3,4.6c0.2,1.2,0.4,2.3,0.7,3c0.3,0.8,0.7,1.3,1.2,1.6c0.5,0.3,1,0.5,1.6,0.5
		c0.9,0,1.7-0.3,2.1-1c0.5-0.7,1-1.9,1.6-3.7l7.7,2.1c-0.5,1.3-1.1,2.6-1.7,3.7c-0.6,1.1-1.4,2.1-2.3,2.8c-0.9,0.8-2,1.4-3.2,1.8
		c-1.2,0.4-2.8,0.7-4.5,0.7c-2.2,0-4-0.4-5.5-1.3c-1.5-0.9-2.8-2.1-3.8-3.7c-1-1.6-1.7-3.5-2.1-5.7c-0.4-2.2-0.6-4.7-0.6-7.4
		c0-6,0.9-10.6,2.8-13.7s5-4.8,9.5-4.8c4,0,6.9,1.6,8.8,4.7c1.9,3.1,2.8,7.7,2.8,13.7v2.1H57.7z M61.2,359.5c-1.1,0-2,0.7-2.5,2
		c-0.6,1.3-0.9,3.6-1,6.9h6.9C64.5,362.5,63.4,359.5,61.2,359.5"/>
	<path d="M91.3,389.3h-9l-8.5-35.1H83l1.7,9.4c0.2,1.2,0.4,2.5,0.7,4c0.2,1.5,0.4,2.9,0.6,4.5c0.2,1.5,0.4,3.1,0.5,4.5
		c0.2,1.5,0.3,2.8,0.4,4c0.1-1.2,0.2-2.6,0.3-4c0.2-1.5,0.4-3,0.5-4.5c0.2-1.5,0.4-3,0.6-4.5c0.2-1.5,0.4-2.8,0.7-4l1.7-9.4h9.1
		L91.3,389.3z"/>
	<path d="M109.4,374c0.1,1.8,0.2,3.4,0.3,4.6c0.2,1.2,0.4,2.3,0.7,3c0.3,0.8,0.7,1.3,1.2,1.6c0.5,0.3,1,0.5,1.6,0.5
		c0.9,0,1.7-0.3,2.1-1c0.5-0.7,1-1.9,1.6-3.7l7.7,2.1c-0.5,1.3-1.1,2.6-1.7,3.7c-0.6,1.1-1.4,2.1-2.3,2.8c-0.9,0.8-2,1.4-3.2,1.8
		c-1.2,0.4-2.8,0.7-4.5,0.7c-2.2,0-4-0.4-5.5-1.3c-1.5-0.9-2.8-2.1-3.8-3.7c-1-1.6-1.7-3.5-2.1-5.7c-0.4-2.2-0.6-4.7-0.6-7.4
		c0-6,0.9-10.6,2.8-13.7s5-4.8,9.5-4.8c4,0,6.9,1.6,8.8,4.7c1.9,3.1,2.8,7.7,2.8,13.7v2.1H109.4z M113,359.5c-1.1,0-2,0.7-2.5,2
		c-0.6,1.3-0.9,3.6-1,6.9h6.9C116.3,362.5,115.1,359.5,113,359.5"/>
	<polygon points="129.1,389.3 129.1,343.7 138,340.6 138,389.3 	"/>
	<path d="M167.1,379.2c-0.4,2.3-1.1,4.2-2,5.8c-1,1.6-2.3,2.8-3.9,3.7c-1.6,0.9-3.7,1.3-6.1,1.3c-2.3,0-4.2-0.4-5.8-1.3
		c-1.6-0.8-2.9-2.1-3.8-3.6s-1.7-3.5-2.1-5.7c-0.4-2.2-0.7-4.7-0.7-7.5c0-2.7,0.2-5.2,0.5-7.4c0.4-2.3,1-4.2,2-5.9
		c0.9-1.6,2.2-2.9,3.9-3.8c1.6-0.9,3.8-1.4,6.4-1.4c2.3,0,4.3,0.4,5.9,1.3c1.6,0.9,2.9,2.1,3.8,3.7c1,1.6,1.7,3.5,2,5.7
		c0.4,2.2,0.6,4.7,0.6,7.4C167.7,374.4,167.5,377,167.1,379.2 M158.1,363c-0.4-2-1.4-3-3-3c-1.6,0-2.6,1-3,3c-0.4,2-0.6,4.9-0.6,8.7
		c0,1.9,0,3.6,0.1,5.1c0.1,1.5,0.2,2.7,0.5,3.7c0.2,1,0.6,1.8,1.1,2.3c0.5,0.5,1.2,0.8,2.1,0.8c1.5,0,2.5-1,2.9-3.1
		c0.4-2,0.6-4.9,0.6-8.6C158.8,368,158.6,365,158.1,363"/>
	<path d="M193.3,385.5c-1.5,3-3.9,4.5-7.2,4.5c-1.1,0-2.2-0.2-3.2-0.6c-1-0.4-1.9-1-2.7-1.6l0.1,11.2l-8.9,3.2v-48h8.9v1.7
		c0.7-0.7,1.5-1.2,2.5-1.7c1-0.5,2.1-0.7,3.4-0.7c1.8,0,3.4,0.4,4.5,1.2c1.2,0.8,2.2,2,2.9,3.5c0.7,1.5,1.2,3.4,1.5,5.7
		c0.3,2.2,0.4,4.8,0.4,7.6C195.6,377.8,194.8,382.5,193.3,385.5 M186.5,366.1c-0.1-1.5-0.3-2.7-0.5-3.6c-0.2-0.9-0.6-1.6-1-1.9
		c-0.4-0.4-0.9-0.6-1.5-0.6c-0.6,0-1.2,0.1-1.7,0.3c-0.5,0.2-1,0.5-1.4,0.9v21.1c0.4,0.4,0.9,0.7,1.4,0.9c0.5,0.2,1.1,0.3,1.8,0.3
		c0.5,0,1-0.2,1.4-0.5c0.4-0.3,0.7-0.9,1-1.8c0.2-0.9,0.4-2,0.5-3.5c0.1-1.5,0.2-3.4,0.2-5.8C186.6,369.5,186.6,367.6,186.5,366.1"
		/>
	<path d="M228.3,389.3v-26c0-1.1-0.1-1.9-0.4-2.4c-0.3-0.5-0.8-0.8-1.6-0.8c-0.7,0-1.3,0.1-1.8,0.3c-0.5,0.2-1.1,0.5-1.6,0.8v28.1
		h-8.9v-26c0-1.1-0.1-1.9-0.4-2.4c-0.3-0.5-0.8-0.8-1.6-0.8c-0.7,0-1.3,0.1-1.8,0.3c-0.5,0.2-1.1,0.5-1.6,0.8v28.1h-8.9v-35.1h8.9
		v1.8c0.8-0.7,1.7-1.3,2.8-1.8c1.1-0.5,2.4-0.7,4-0.7c1.8,0,3.2,0.2,4.1,0.6c1,0.4,1.9,1.1,2.6,2.1c1.2-0.9,2.4-1.6,3.6-2
		c1.3-0.4,2.6-0.7,4-0.7c2.6,0,4.5,0.6,5.8,1.9c1.2,1.3,1.8,3.5,1.8,6.7v27.2H228.3z"/>
	<path d="M249.3,374c0.1,1.8,0.2,3.4,0.3,4.6c0.2,1.2,0.4,2.3,0.7,3c0.3,0.8,0.7,1.3,1.2,1.6c0.5,0.3,1,0.5,1.6,0.5
		c0.9,0,1.7-0.3,2.1-1c0.5-0.7,1-1.9,1.6-3.7l7.7,2.1c-0.5,1.3-1.1,2.6-1.7,3.7c-0.6,1.1-1.4,2.1-2.3,2.8c-0.9,0.8-2,1.4-3.2,1.8
		c-1.2,0.4-2.8,0.7-4.5,0.7c-2.2,0-4-0.4-5.5-1.3c-1.5-0.9-2.8-2.1-3.8-3.7c-1-1.6-1.7-3.5-2.1-5.7c-0.4-2.2-0.6-4.7-0.6-7.4
		c0-6,0.9-10.6,2.8-13.7c1.9-3.2,5-4.8,9.5-4.8c4,0,6.9,1.6,8.8,4.7c1.9,3.1,2.8,7.7,2.8,13.7v2.1H249.3z M252.9,359.5
		c-1.1,0-2,0.7-2.5,2c-0.6,1.3-0.9,3.6-1,6.9h6.9C256.2,362.5,255,359.5,252.9,359.5"/>
	<path d="M282.8,389.3v-26c0-1.1-0.2-1.9-0.5-2.5c-0.3-0.6-0.9-0.8-1.7-0.8c-0.7,0-1.3,0.1-1.9,0.3c-0.5,0.2-1.1,0.5-1.7,0.8v28.2
		h-8.9v-35.1h8.9v1.7c0.9-0.7,1.9-1.3,2.9-1.8c1.1-0.5,2.4-0.7,4-0.7c2.7,0,4.6,0.6,5.8,1.9c1.2,1.3,1.8,3.6,1.8,6.9v27H282.8z"/>
	<path d="M311.5,388.9c-0.9,0.4-1.9,0.6-2.8,0.8c-0.9,0.2-2,0.3-3.2,0.3c-5.5,0-8.2-2.6-8.2-7.9v-21.3H294v-6.6h3.3v-10.5l8.9-3.1
		v13.6h5.8v6.6h-5.8v19.7c0,1.9,0.7,2.8,2.3,2.8c0.8,0,1.4-0.1,2-0.2c0.6-0.2,1.2-0.4,1.9-0.8L311.5,388.9z"/>
	<path d="M351.7,385.7c-2.3,2.4-5.9,3.6-10.8,3.6h-11.1v-46.8h11.3c4.3,0,7.7,1,10,3c2.4,2,3.5,5.2,3.5,9.5c0,2.6-0.6,4.7-1.7,6.3
		c-1.1,1.6-2.7,2.8-4.8,3.7c2.1,0.8,3.8,2.1,5.1,3.7c1.3,1.6,1.9,3.9,1.9,7C355.2,380,354.1,383.3,351.7,385.7 M344.3,350.2
		c-0.8-0.9-2-1.4-3.6-1.4h-1.9V362h2c1.5,0,2.6-0.5,3.4-1.5c0.8-1,1.2-2.8,1.2-5.3C345.5,352.8,345.1,351.2,344.3,350.2
		 M344.7,369.8c-0.8-1.1-2.2-1.7-4.2-1.7h-1.7V383h2c1.9,0,3.2-0.6,3.9-1.7c0.8-1.1,1.1-3,1.1-5.6
		C345.9,372.9,345.5,371,344.7,369.8"/>
	<path d="M382.1,379.2c-0.4,2.3-1.1,4.2-2,5.8c-1,1.6-2.3,2.8-3.9,3.7c-1.6,0.9-3.7,1.3-6.1,1.3c-2.3,0-4.2-0.4-5.8-1.3
		c-1.6-0.8-2.9-2.1-3.8-3.6c-1-1.6-1.7-3.5-2.1-5.7c-0.4-2.2-0.7-4.7-0.7-7.5c0-2.7,0.2-5.2,0.5-7.4c0.4-2.3,1-4.2,2-5.9
		c0.9-1.6,2.2-2.9,3.9-3.8c1.6-0.9,3.8-1.4,6.4-1.4c2.3,0,4.3,0.4,5.9,1.3c1.6,0.9,2.9,2.1,3.8,3.7c1,1.6,1.7,3.5,2,5.7
		c0.4,2.2,0.6,4.7,0.6,7.4C382.7,374.4,382.5,377,382.1,379.2 M373.1,363c-0.4-2-1.4-3-3-3c-1.6,0-2.6,1-3,3c-0.4,2-0.6,4.9-0.6,8.7
		c0,1.9,0,3.6,0.1,5.1c0.1,1.5,0.2,2.7,0.5,3.7c0.2,1,0.6,1.8,1.1,2.3c0.5,0.5,1.2,0.8,2.1,0.8c1.5,0,2.5-1,2.9-3.1
		c0.4-2,0.6-4.9,0.6-8.6C373.7,368,373.5,365,373.1,363"/>
	<path d="M400,389.3v-1.7c-0.9,0.8-1.8,1.4-2.7,1.8c-0.9,0.4-2,0.6-3.4,0.6c-5.9,0-8.8-3.9-8.8-11.6c0-3.9,0.8-6.8,2.5-8.8
		c1.6-2,4.1-3,7.5-3c1.1,0,2.1,0.1,2.8,0.3c0.8,0.2,1.5,0.5,2.1,0.8v-4.2c0-1.3-0.3-2.2-0.8-2.7c-0.5-0.5-1.4-0.8-2.6-0.8
		c-1.1,0-2.2,0.2-3.2,0.7c-1,0.4-2.1,1.1-3.4,2l-3.7-5.2c1.6-1.2,3.3-2.1,5.3-2.9c2-0.8,4.1-1.2,6.2-1.2c3.7,0,6.5,0.7,8.4,2.1
		c1.9,1.4,2.8,3.8,2.8,7.3v26.5H400z M400,373.4c-0.4-0.2-0.9-0.4-1.3-0.5c-0.4-0.1-1.1-0.2-1.8-0.2c-1.1,0-1.9,0.4-2.4,1.3
		c-0.5,0.8-0.8,2.3-0.8,4.4c0,2,0.2,3.4,0.8,4.3c0.5,0.9,1.4,1.3,2.6,1.3c1.3,0,2.3-0.4,3-1.1V373.4z"/>
	<path d="M430.7,361.8c-0.7-0.4-1.3-0.8-2-1c-0.7-0.2-1.5-0.3-2.4-0.3c-1.6,0-2.8,0.4-3.8,1.3v27.4h-8.9v-35.1h8.9v1.7
		c0.8-0.8,1.6-1.4,2.5-1.8c0.9-0.4,2-0.7,3.1-0.7c1.1,0,1.8,0.1,2.3,0.2c0.5,0.1,1,0.3,1.4,0.5L430.7,361.8z"/>
	<path d="M447.6,389.3v-1.7c-0.7,0.7-1.5,1.2-2.5,1.7c-1,0.5-2.2,0.7-3.5,0.7c-1.8,0-3.3-0.4-4.5-1.2c-1.2-0.8-2.2-2-2.9-3.5
		c-0.7-1.5-1.2-3.4-1.5-5.7c-0.3-2.3-0.4-4.8-0.4-7.6c0-6.3,0.7-10.9,2.2-14c1.5-3,3.9-4.5,7.2-4.5c1.1,0,2.2,0.2,3.2,0.6
		c1,0.4,1.9,1,2.7,1.6v-12l8.9-3.1v48.8H447.6z M447.6,361.3c-0.4-0.4-0.9-0.6-1.4-0.9c-0.5-0.2-1.1-0.3-1.8-0.3
		c-0.6,0-1.1,0.2-1.5,0.5c-0.4,0.3-0.7,0.9-1,1.8c-0.3,0.9-0.4,2.1-0.5,3.5c-0.1,1.5-0.2,3.4-0.2,5.8c0,2.3,0,4.2,0.1,5.7
		c0.1,1.5,0.3,2.7,0.5,3.6c0.3,0.9,0.6,1.6,1,1.9c0.4,0.4,1,0.6,1.7,0.6c0.6,0,1.2-0.1,1.7-0.3c0.5-0.2,1-0.5,1.4-0.9V361.3z"/>
	<path class="st1" d="M515,304.7c2.4-1.5,10.5-10,35.7-13.3c25-3.3,41,3.9,44.6,5.3c3.6,1.4,18.6,9.5,25,16c0,0-46.8-18.4-110.3-4.2
		C509.9,308.5,512.6,306.2,515,304.7"/>
	<path class="st1" d="M484.9,304.4c2.9-3.8,13.9-18.3,35.5-28.4c21.5-10.1,44.9-6,58.5-0.3c13.6,5.7,15.8,10.4,15.8,10.1
		c0-0.3-47.3-16.6-107.9,17.3L484.9,304.4z"/>
	<path class="st1" d="M552.8,252.7c-40-5-53.4,6.6-64.6,19.3c-11.2,12.7-14.2,39.8-14.2,39.8s20.1-46.5,77.7-59L552.8,252.7z"/>
	<path class="st1" d="M467.7,330.8c0,0-34.1-62.1,35.8-90.2c0,0-24.2,21.6-30.3,43.2c-4.1,14.4-6.8,25.9-5.5,45.5V330.8z"/>
</g>
</svg>
